<svg width="101" height="60" viewBox="0 0 101 60" fill="none" xmlns="http://www.w3.org/2000/svg">
<circle cx="71" cy="30" r="29.5" transform="rotate(180 71 30)" stroke="black"/>
<path d="M71 31C71.5523 31 72 30.5523 72 30C72 29.4477 71.5523 29 71 29V31ZM0.292892 29.2929C-0.0976334 29.6834 -0.0976334 30.3166 0.292892 30.7071L6.65685 37.0711C7.04738 37.4616 7.68054 37.4616 8.07107 37.0711C8.46159 36.6805 8.46159 36.0474 8.07107 35.6569L2.41422 30L8.07107 24.3431C8.46159 23.9526 8.46159 23.3195 8.07107 22.9289C7.68054 22.5384 7.04738 22.5384 6.65685 22.9289L0.292892 29.2929ZM71 29L1 29V31L71 31V29Z" fill="black"/>
</svg>
