<svg width="101" height="60" viewBox="0 0 101 60" fill="none" xmlns="http://www.w3.org/2000/svg">
<!-- <circle cx="33.5" cy="29.5" r="26.5" fill="#FDFBF5"/> -->
<circle cx="30" cy="30" r="29.5" stroke="black"/>
<path d="M30 29C29.4477 29 29 29.4477 29 30C29 30.5523 29.4477 31 30 31L30 29ZM100.707 30.7071C101.098 30.3166 101.098 29.6834 100.707 29.2929L94.3431 22.9289C93.9526 22.5384 93.3195 22.5384 92.9289 22.9289C92.5384 23.3195 92.5384 23.9526 92.9289 24.3432L98.5858 30L92.9289 35.6569C92.5384 36.0474 92.5384 36.6805 92.9289 37.0711C93.3195 37.4616 93.9526 37.4616 94.3431 37.0711L100.707 30.7071ZM30 31L100 31L100 29L30 29L30 31Z" fill="black"/>
</svg>
